# xmcd
#
# Track frame offsets: 
#        150
#        16178
#        27511
#        41442
#        59710
#        73006
#        85066
#        98700
#        112849
#        123559
#        134166
#        148433
#        159496
#        171984
#        184538
#        197630
#        208684
#        221182
#        235844
#
# Disc length: 3290 seconds
#
# Revision: 0
# Processed by: cddbd v1.5.2PL0 Copyright (c) Steve Scherf et al.
# Submitted via: ExactAudioCopy v0.95b4
#
DISCID=1f0cd813
DTITLE=Va  - The British Beat Best Of The '60s - Disc 3
DYEAR=1900
DGENRE=
TTITLE0=The Zombies - Time Of The Season
TTITLE1=The Yardbirds - For Your Love
TTITLE2=The Tremeloes - Here Comes My Baby
TTITLE3=Procol Harum - A Whiter Shade Of Pale
TTITLE4=The Hollies - Bus Stop
TTITLE5=The Spencer Davis Group - I'm A Man
TTITLE6=The Foundations - Build Me Up Buttercup
TTITLE7=Petula Clark - Downtown
TTITLE8=The Seekers - Georgy Girl
TTITLE9=Tom Jones - What's New Pussycat?
TTITLE10=The Tremeloes - Silence Is Golden
TTITLE11=Gerry and The Pacemakers - Ferry Cross The Mersey
TTITLE12=Petula Clark - I Know A Place
TTITLE13=Lulu - To Sir With Love
TTITLE14=The Small Faces - Itchycoo Park
TTITLE15=New Vaudeville Band - Winchester Cathedral
TTITLE16=Sandie Shaw - (There's) Always Something There To Remind Me
TTITLE17=The Walker Brothers - Make It Easy On Yourself
TTITLE18=Peter and Gordon - Woman
EXTD=
EXTT0=
EXTT1=
EXTT2=
EXTT3=
EXTT4=
EXTT5=
EXTT6=
EXTT7=
EXTT8=
EXTT9=
EXTT10=
EXTT11=
EXTT12=
EXTT13=
EXTT14=
EXTT15=
EXTT16=
EXTT17=
EXTT18=
PLAYORDER=
